<?xml version="1.0" encoding="utf-8"?>
<!-- Uploaded to: SVG Repo, www.svgrepo.com, Generator: SVG Repo Mixer Tools -->
<svg version="1.1" xmlns="http://www.w3.org/2000/svg" xmlns:xlink="http://www.w3.org/1999/xlink" 
	 viewBox="0 0 512 512">
<g>
	<path d="M 148.5 104.2 c 16.1 0 29.2 -13.1 29.2 -29.2 V 29.2 C 177.6 13.1 164.6 0 148.5 0 c -16.1 0 -29.2 13.1 -29.2 29.2 V 75 C 119.3 91.2 132.4 104.2 148.5 104.2 z"/>
	<path d="M 363.5 104.2 c 16.1 0 29.2 -13.1 29.2 -29.2 V 29.2 C 392.7 13.1 379.6 0 363.5 0 c -16.1 0 -29.2 13.1 -29.2 29.2 V 75 C 334.4 91.2 347.4 104.2 363.5 104.2 z"/>
	<path d="M 436.4 41.6 h -18 V 75 c 0 30.2 -24.6 54.8 -54.8 54.8 c -30.2 0 -54.8 -24.6 -54.8 -54.8 V 41.6 H 203.3 V 75 c 0 30.2 -24.6 54.8 -54.8 54.8 c -30.2 0 -54.8 -24.6 -54.8 -54.8 V 41.6 H 75.6 c -38.8 0 -70.2 31.4 -70.2 70.2 v 330 C 5.4 480.6 36.9 512 75.6 512 h 360.7 c 38.8 0 70.2 -31.4 70.2 -70.2 V 111.8 C 506.6 73 475.1 41.6 436.4 41.6 z M 472.4 441.8 c 0 19.9 -16.2 36.1 -36.1 36.1 H 75.6 c -19.9 0 -36.1 -16.2 -36.1 -36.1 V 193.9 h 432.8 V 441.8 z"/>
</g>
</svg>