<?xml version="1.0" encoding="iso-8859-1"?>
<!-- Uploaded to: SVG Repo, www.svgrepo.com, Generator: SVG Repo Mixer Tools -->
<svg fill="#000000" width="1rem" height="1rem" version="1.1" xmlns="http://www.w3.org/2000/svg" xmlns:xlink="http://www.w3.org/1999/xlink" 
	 viewBox="0 0 511.998 511.998" xml:space="preserve">
	<path d="M510.392,260.149c-13.715-53.223-53.046-100.076-108.052-123.255C366.544,65.462,297.731,21.459,217.453,21.459
		c-105.686,0-197.029,75.486-216.571,176c-5.859,30.132,18.222,58.54,49.652,58.54h97.181L126.54,395.957
		c-0.022,0.143-0.041,0.285-0.059,0.428c-6.248,49.984,32.785,94.154,83.118,94.154h15.71c17.77,0,34.906-5.665,49.063-15.895
		c12.026,10.173,27.373,15.895,43.292,15.895h22.953c39.533,0,70.628-34.19,66.679-73.679l-9.385-93.85h63.617
		C494.402,323.011,518.585,291.941,510.392,260.149z M50.535,222.493c-10.246,0-18.619-9.09-16.763-18.639
		c16.503-84.881,95.468-148.889,183.682-148.889c55.936,0,105.262,25.169,137.726,68.863c-8.617-1.222-17.32-1.852-26.041-1.852
		c-68.146,0-133.93,37.806-166.725,100.517H50.535z M255.031,447.298c-8.547,6.268-18.943,9.736-29.723,9.736h-15.71
		c-30.124,0-53.513-26.371-49.896-56.291l12.706-83.98c7.34,4.055,15.661,6.248,24.342,6.248h63.617l-9.385,93.85
		C249.943,427.275,251.388,437.692,255.031,447.298z M340.616,457.034h-22.953c-19.831,0-35.318-17.059-33.339-36.84l9.718-97.183
		h70.196l9.718,97.183C375.929,439.926,360.495,457.034,340.616,457.034z M461.526,289.505c-12.582,0-255.699,0-264.775,0
		c-11.023,0-19.133-10.467-16.421-20.994c16.877-65.494,79.46-113.029,148.809-113.029s131.932,47.536,148.808,113.029
		C480.665,279.062,472.528,289.505,461.526,289.505z"/>
</svg>